<?xml version="1.0" standalone="no"?>
<!DOCTYPE svg PUBLIC "-//W3C//DTD SVG 20010904//EN"
 "http://www.w3.org/TR/2001/REC-SVG-20010904/DTD/svg10.dtd">
<svg version="1.0" xmlns="http://www.w3.org/2000/svg"
 width="1em" height="1em" viewBox="0 0 159.000000 109.000000"
 preserveAspectRatio="xMidYMid meet">

<g transform="translate(0.000000,109.000000) scale(0.100000,-0.100000)"
fill="currentColor" stroke="none">
<path d="M424 877 c-235 -208 -258 -231 -250 -264 4 -15 14 -32 23 -38 51 -31
53 -39 53 -166 0 -104 3 -124 18 -135 13 -10 81 -13 301 -14 259 0 285 2 297
17 9 13 13 54 14 136 l0 118 42 39 42 39 -18 38 c-10 20 -27 44 -39 52 -20 14
-172 150 -256 230 -20 18 -48 42 -62 52 l-27 19 -138 -123z"/>
<path d="M861 846 c-17 -21 -2 -44 64 -101 94 -81 105 -140 43 -211 -30 -34
-30 -36 -31 -152 l-1 -117 99 -3 c125 -4 125 -3 125 128 0 94 1 96 30 122 17
14 30 36 30 48 0 21 -58 84 -146 160 -16 14 -59 51 -95 83 -67 58 -97 69 -118
43z"/>
<path d="M1109 784 c-11 -14 -2 -26 74 -97 80 -76 87 -85 87 -121 0 -27 -8
-49 -30 -76 -30 -38 -31 -41 -28 -132 l3 -93 57 -3 c91 -5 98 3 98 107 0 87 1
90 30 114 17 14 30 35 30 45 0 13 -34 50 -87 99 -48 43 -96 87 -108 98 -39 39
-87 75 -100 75 -7 0 -18 -7 -26 -16z"/>
</g>
</svg>
