<svg xmlns="http://www.w3.org/2000/svg" viewBox="0 0 512.000000 512.000000" preserveAspectRatio="xMidYMid meet" width="1em" height="1em">
    <g transform="translate(0.000000,512.000000) scale(0.100000,-0.100000)" fill="currentColor" stroke="none">
        <path
            d="M1035 4690 c-269 -19 -474 -172 -574 -428 l-26 -67 0 -1635 0 -1635
            26 -67 c74 -190 207 -323 397 -397 l67 -26 1625 0 1625 0 70 22 c188 60 337
            204 414 401 l26 67 3 1170 c2 846 0 1187 -8 1230 -35 181 -171 360 -336 442
            l-72 35 -5 176 c-3 118 -10 197 -21 237 -62 228 -246 407 -472 461 -62 15
            -170 16 -1064 14 -547 -2 -1035 -3 -1085 -4 -49 -1 -178 2 -285 6 -107 3 -244
            3 -305 -2z m513 -432 c64 -16 134 -86 150 -150 8 -30 12 -136 12 -288 0 -195
            3 -248 15 -278 20 -47 50 -78 100 -105 l40 -22 1130 -5 c1027 -5 1133 -7 1160
            -22 37 -20 67 -52 91 -98 18 -33 19 -83 22 -1125 2 -803 0 -1104 -8 -1144 -16
            -71 -83 -142 -152 -159 -67 -17 -3029 -17 -3096 0 -64 16 -134 86 -150 150
            -17 67 -17 3029 0 3096 15 60 87 135 144 150 56 14 484 15 542 0z m2187 -23
            c36 -22 57 -45 77 -84 26 -50 28 -61 28 -182 l0 -129 -855 0 -855 0 0 148 c0
            99 -5 167 -15 205 -8 32 -15 62 -15 68 0 6 280 9 793 7 l794 -3 48 -30z"
        />
        <path
            d="M2510 2981 c-74 -24 -119 -63 -145 -123 -12 -30 -15 -83 -15 -272 l0
            -235 -242 -3 c-226 -3 -246 -4 -283 -25 -77 -41 -115 -105 -115 -193 0 -84 53
            -161 132 -194 30 -13 83 -16 273 -16 l235 0 0 -240 c0 -217 2 -244 19 -278 84
            -163 306 -161 382 3 16 35 19 68 19 278 l0 237 235 0 c256 0 281 4 339 58 81
            76 88 220 13 300 -12 13 -40 34 -62 45 -37 21 -57 22 -282 25 l-243 3 0 235
            c0 251 -5 281 -53 332 -47 51 -149 82 -207 63z"
        />
    </g>
</svg>