<?xml version="1.0" standalone="no"?>
<!DOCTYPE svg PUBLIC "-//W3C//DTD SVG 20010904//EN"
 "http://www.w3.org/TR/2001/REC-SVG-20010904/DTD/svg10.dtd">
<svg version="1.0" xmlns="http://www.w3.org/2000/svg"
 width="1em" height="1em" viewBox="0 0 512.000000 512.000000"
 preserveAspectRatio="xMidYMid meet">

<g transform="translate(0.000000,512.000000) scale(0.100000,-0.100000)"
fill="currentColor" stroke="none">
<path d="M3132 5104 c-197 -53 -330 -221 -335 -425 l-2 -72 -130 -42 c-455
-148 -831 -417 -1120 -800 l-54 -72 -68 23 c-126 43 -276 27 -385 -42 -93 -59
-172 -172 -198 -283 -17 -72 -8 -192 20 -261 30 -76 622 -921 689 -983 173
-162 451 -158 619 9 79 79 123 179 130 293 l5 88 151 52 c83 29 160 54 171 57
17 4 151 -183 864 -1201 502 -718 861 -1221 885 -1242 95 -82 241 -125 362
-105 282 47 455 339 355 602 -14 37 -304 458 -867 1263 l-845 1208 69 82 c38
45 88 108 112 140 23 31 43 57 44 57 1 0 28 -9 61 -21 270 -95 550 73 596 357
14 85 2 168 -34 248 -33 71 -614 900 -672 958 -109 108 -274 152 -423 112z
m197 -311 c36 -28 618 -860 632 -905 17 -52 -1 -107 -46 -147 -47 -41 -95 -49
-154 -25 -44 19 -59 38 -352 457 -198 283 -309 449 -311 469 -15 101 61 184
161 174 24 -2 55 -13 70 -23z m-184 -765 c116 -165 218 -313 228 -329 l19 -29
-89 -117 c-201 -269 -467 -483 -760 -612 -110 -48 -345 -124 -370 -119 -18 3
-463 629 -463 651 1 16 101 149 191 253 196 226 464 410 750 518 95 35 254 85
274 85 6 0 105 -135 220 -301z m-1790 -606 c19 -12 139 -176 326 -443 163
-233 301 -434 308 -446 29 -56 2 -139 -60 -185 -34 -26 -109 -26 -152 -1 -22
13 -123 149 -336 454 -288 410 -305 437 -308 484 -5 59 18 104 69 135 42 25
113 26 153 2z m2292 -1158 c266 -379 483 -691 483 -694 -1 -7 -241 -173 -245
-169 -1 2 -221 316 -489 698 l-485 694 84 58 c47 32 100 69 118 83 17 14 36
24 42 23 5 -2 227 -314 492 -693z m742 -1060 c45 -63 81 -119 81 -124 0 -13
-230 -171 -240 -165 -5 3 -45 58 -90 122 -60 86 -78 118 -68 124 7 4 60 41
118 82 58 42 108 76 112 76 3 1 43 -51 87 -115z m347 -495 c89 -129 98 -163
65 -233 -17 -33 -33 -50 -65 -65 -93 -46 -144 -19 -248 129 -43 61 -78 114
-78 118 0 11 234 171 242 166 4 -3 42 -54 84 -115z"/>
<path d="M645 1486 c-84 -21 -147 -57 -211 -121 -100 -100 -134 -196 -134
-383 l0 -107 -52 -24 c-65 -30 -166 -129 -197 -194 -43 -90 -51 -141 -51 -345
0 -224 9 -256 80 -292 39 -20 56 -20 1270 -20 1214 0 1231 0 1270 20 71 36 80
68 80 292 0 205 -8 255 -51 345 -33 66 -132 164 -196 194 l-53 24 0 107 c0
185 -34 283 -135 384 -65 65 -136 105 -223 123 -79 16 -1330 14 -1397 -3z
m1375 -306 c60 -31 80 -78 80 -190 l0 -90 -750 0 -750 0 0 93 c1 109 17 147
76 183 l39 24 633 0 c615 0 634 -1 672 -20z m300 -600 c60 -31 80 -78 80 -190
l0 -90 -1050 0 -1050 0 0 93 c1 109 17 147 76 183 l39 24 933 0 c915 0 934 0
972 -20z"/>
</g>
</svg>
