<svg 
    xmlns="http://www.w3.org/2000/svg" 
    width="1em" 
    height="1em" 
    viewBox="0 0 1024 1024" 
    version="1.1"
>
    <path d="" stroke="none" fill="currentColor" fill-rule="evenodd"/>
    <path 
        d="M 414 17.038 C 321.781 23.707, 233.134 60.972, 163 122.553 C 148.445 135.333, 123.235 161.275, 112.205 174.823 C 59.911 239.055, 29.050 313.558, 19.345 399 C 17.227 417.649, 16.939 465.879, 18.835 484.500 C 26.837 563.107, 52.467 631.493, 97.349 694 C 121.923 728.223, 155.255 762.109, 189.500 787.681 C 288.378 861.517, 416.402 888.529, 539 861.422 C 574.529 853.567, 615.119 838.480, 647 821.281 C 658.259 815.207, 684.154 798.981, 695.941 790.614 L 705.383 783.912 815.941 894.289 C 918.548 996.727, 927.011 1004.928, 933.603 1008.311 C 955.847 1019.723, 981.101 1015.907, 998.504 998.504 C 1015.907 981.101, 1019.723 955.847, 1008.311 933.603 C 1004.928 927.011, 996.727 918.548, 894.289 815.941 L 783.912 705.383 790.301 696.357 C 807.112 672.606, 819.184 652.234, 830.927 627.800 C 871.750 542.862, 883.068 446.130, 862.958 354.045 C 848.197 286.451, 816.579 222.515, 771.286 168.669 C 762.202 157.870, 733.707 129.074, 723 119.873 C 654.841 61.299, 576.155 27.417, 486.500 18.034 C 472.409 16.560, 428.886 15.962, 414 17.038 M 427 85.606 C 348.281 90.029, 274.249 119.405, 214.531 169.914 C 158.138 217.609, 117.858 280.405, 99.012 350 C 90.255 382.337, 86.655 410.326, 86.727 445.500 C 86.779 471.152, 88.067 485.359, 92.547 509.710 C 111.340 611.871, 175.109 702.161, 265.606 754.742 C 309.308 780.134, 354.956 794.817, 408.104 800.577 C 427.495 802.678, 472.006 802.125, 490.500 799.553 C 530.709 793.961, 566.626 783.117, 601.500 766.042 C 701.012 717.317, 773.361 624.669, 795.587 517.500 C 804.074 476.575, 805.258 430.998, 798.912 389.500 C 783.453 288.416, 724.269 197.592, 637.500 141.795 C 589.761 111.096, 538.071 93.133, 480 87.061 C 469.291 85.941, 436.873 85.051, 427 85.606 M 426 235.487 C 415.882 237.773, 410.046 239.855, 403 243.692 C 383.136 254.510, 368.057 272.917, 360.399 295.693 C 342.229 349.739, 371.635 408.933, 422.705 421.114 C 429.924 422.836, 433.561 423.123, 443 422.716 C 456.062 422.154, 463.283 420.454, 473.911 415.441 C 519.448 393.962, 538.775 334.283, 516.029 285.381 C 504.755 261.144, 484.897 243.700, 461 237.044 C 451.007 234.261, 434.647 233.533, 426 235.487 M 422.500 453.990 C 407.203 455.298, 389.717 458.521, 376.477 462.472 C 361.252 467.017, 339.255 477.851, 328 486.349 C 302.717 505.438, 285.097 532.022, 276.201 564.500 C 273.988 572.579, 273.688 575.953, 273.273 597.462 C 272.962 613.570, 273.178 622.650, 273.932 625.167 C 275.390 630.035, 279.292 634.598, 284.086 637.044 C 287.843 638.961, 291.064 639, 444.492 639 C 616.002 639, 604.855 639.385, 611.274 633.237 C 616.200 628.519, 617.092 622.969, 616.449 601.032 C 615.500 568.628, 610.022 548.423, 595.939 525.394 C 572.178 486.537, 532.136 462.557, 479.136 455.443 C 465.719 453.643, 435.604 452.870, 422.500 453.990" 
        stroke="none" 
        fill="currentColor" 
        fill-rule="evenodd"
    />
</svg>